<?xml version="1.0" encoding="UTF-8"?>
<svg version="1.1" xmlns="http://www.w3.org/2000/svg" width="512" height="512">
<path d="M0 0 C0.96082568 -0.00835666 1.92165135 -0.01671332 2.91159296 -0.02532321 C6.11587515 -0.04821544 9.31945429 -0.04269681 12.52380371 -0.0370636 C14.82725287 -0.04739995 17.13069512 -0.05938978 19.43412781 -0.07290649 C25.67991414 -0.10392878 31.92546965 -0.10923136 38.17132378 -0.10797477 C43.38769692 -0.10880565 48.60402007 -0.12105103 53.82037783 -0.13292438 C66.82922035 -0.16185301 79.83792883 -0.16482418 92.84679466 -0.15686695 C104.13485076 -0.15088303 115.42247281 -0.181298 126.71042067 -0.22848966 C138.31372214 -0.27661985 149.91679534 -0.29800494 161.52019835 -0.29317886 C168.02961925 -0.29085582 174.53859154 -0.29919513 181.04792786 -0.3342495 C187.16806619 -0.36617769 193.28728409 -0.3644165 199.40743446 -0.33680534 C201.65199486 -0.3323463 203.89661576 -0.33981532 206.14108849 -0.36014938 C209.20866011 -0.38605588 212.27309137 -0.36868095 215.34057617 -0.34057617 C216.22618933 -0.35823758 217.11180249 -0.37589899 218.02425241 -0.3940956 C224.1421922 -0.27312117 227.16611196 1.50954641 231.5213418 5.77449769 C232.33757021 6.6425417 232.33757021 6.6425417 233.17028809 7.52812195 C234.40972168 8.8100946 234.40972168 8.8100946 235.67419434 10.1179657 C236.35353027 10.89269226 237.03286621 11.66741882 237.73278809 12.46562195 C238.48688965 13.32027039 239.24099121 14.17491882 240.01794434 15.0554657 C240.72821777 15.87144226 241.43849121 16.68741882 242.17028809 17.52812195 C242.76712402 18.21003601 243.36395996 18.89195007 243.97888184 19.5945282 C245.10656747 20.88368383 246.23287065 22.17405008 247.35778809 23.46562195 C249.44239973 25.83776623 251.55457453 28.1836826 253.67028809 30.52812195 C256.93419657 34.1448854 260.15819758 37.79201803 263.35778809 41.46562195 C265.44239973 43.83776623 267.55457453 46.1836826 269.67028809 48.52812195 C272.93419657 52.1448854 276.15819758 55.79201803 279.35778809 59.46562195 C281.44239973 61.83776623 283.55457453 64.1836826 285.67028809 66.52812195 C288.93419657 70.1448854 292.15819758 73.79201803 295.35778809 77.46562195 C297.44239973 79.83776623 299.55457453 82.1836826 301.67028809 84.52812195 C304.93419657 88.1448854 308.15819758 91.79201803 311.35778809 95.46562195 C313.44239973 97.83776623 315.55457453 100.1836826 317.67028809 102.52812195 C320.93419657 106.1448854 324.15819758 109.79201803 327.35778809 113.46562195 C329.44239973 115.83776623 331.55457453 118.1836826 333.67028809 120.52812195 C336.9318622 124.14229867 340.15773179 127.78286468 343.34606934 131.4617157 C344.69795959 132.99308603 346.07428486 134.50296004 347.46325684 136.0007782 C348.25345215 136.85542664 349.04364746 137.71007507 349.85778809 138.59062195 C350.58353027 139.36534851 351.30927246 140.14007507 352.05700684 140.9382782 C358.43982425 148.76047403 358.74469344 154.36368445 358.67149353 164.337677 C358.6753888 165.75282905 358.68103106 167.16797719 358.68826443 168.58311611 C358.70300503 172.46273542 358.69284632 176.34194825 358.67852771 180.2215544 C358.6674137 184.4091011 358.67936199 188.59659098 358.68836975 192.78413391 C358.70230166 200.98420262 358.69474622 209.18411732 358.67969417 217.38417869 C358.6628308 226.93473725 358.66604479 236.48525748 358.66978825 246.03582633 C358.67566683 263.07796706 358.66149578 280.1200339 358.63684082 297.16215515 C358.61292384 313.6960375 358.60583511 330.22982111 358.61633301 346.76371765 C358.62774515 364.76976141 358.62966832 382.7757595 358.61523491 400.78180271 C358.61370908 402.70228358 358.61218873 404.62276444 358.6106739 406.54324532 C358.60991609 407.48814453 358.60915828 408.43304374 358.6083775 409.40657626 C358.60363667 416.06240334 358.60548471 422.71821002 358.6097393 429.37403679 C358.61466864 437.48704331 358.60866978 445.59995653 358.58884501 453.7129417 C358.5789806 457.85164582 358.57385866 461.99020793 358.58173752 466.1289196 C358.58880583 469.91944982 358.58196298 473.70969379 358.56413389 477.50018633 C358.55818794 479.51702872 358.56690288 481.53389797 358.5761804 483.55072778 C358.51595812 492.15897974 357.85919053 499.51634493 351.71138662 506.15630823 C344.14921936 512.88779524 336.58419539 513.24616473 326.81651306 513.15631104 C325.36663327 513.16136201 323.91675972 513.16859508 322.46690041 513.17780918 C318.50051532 513.19668031 314.53474959 513.1845272 310.56838048 513.16708624 C306.28405943 513.15368773 301.99982754 513.16915816 297.71551514 513.1809082 C289.32987071 513.19927019 280.94445957 513.19078234 272.55882245 513.17281998 C265.74320379 513.15878515 258.9276484 513.15490308 252.11201668 513.15826225 C251.14139408 513.1587397 250.17077147 513.15921714 249.17073606 513.15970905 C247.1988487 513.16073539 245.22696136 513.16179075 243.25507403 513.16287481 C225.82580513 513.17143884 208.39664875 513.15477601 190.96740723 513.12504578 C174.05915603 513.09620467 157.1510669 513.08912733 140.24279785 513.10453796 C121.82435036 513.12130206 103.40597979 513.12533254 84.98753029 513.1078276 C83.02326811 513.10598324 81.05900593 513.10414851 79.09474373 513.10232353 C78.12832161 513.10141144 77.16189949 513.10049935 76.16619186 513.09955962 C69.3590514 513.09395587 62.55194852 513.09725987 55.7448101 513.10386848 C47.4488374 513.11160288 39.15302419 513.10484508 30.85708361 513.07969344 C26.62516852 513.0672014 22.3935017 513.06104829 18.16157722 513.07223511 C14.28593036 513.08228665 10.41077827 513.0737988 6.53519154 513.05065393 C5.13493205 513.04550095 3.7346281 513.04704515 2.33438807 513.05604858 C-6.48104625 513.10800586 -12.81693107 512.66440476 -19.81799316 506.88749695 C-20.25498535 506.3564032 -20.69197754 505.82530945 -21.14221191 505.27812195 C-21.59209473 504.7573407 -22.04197754 504.23655945 -22.50549316 503.69999695 C-26.18916561 497.65833948 -27.27319658 492.08646653 -27.20723534 485.16345215 C-27.21159566 484.35632904 -27.21595598 483.54920593 -27.22044843 482.71762455 C-27.23137464 480.01992553 -27.22099504 477.32274084 -27.21066284 474.62504578 C-27.21412044 472.66868485 -27.21888569 470.71232586 -27.22484457 468.75597095 C-27.23737011 463.38509161 -27.23117705 458.01437215 -27.22188592 452.64349222 C-27.21510217 446.84927696 -27.22557332 441.05508931 -27.23382568 435.26087952 C-27.24717238 423.91201046 -27.24428108 412.56320088 -27.23558776 401.21432948 C-27.22881532 391.99166166 -27.22789259 382.76901053 -27.23115921 373.54634094 C-27.23161891 372.23421342 -27.23207861 370.92208589 -27.23255224 369.57019693 C-27.23327094 367.57294784 -27.23398969 365.57569876 -27.23473291 363.57844969 C-27.2439087 338.62305433 -27.23559145 313.66769143 -27.21944222 288.71230109 C-27.20520554 266.54379431 -27.20647943 244.37533922 -27.2208252 222.20683289 C-27.23689114 197.29690985 -27.24325794 172.38701548 -27.2339884 147.47708797 C-27.23303275 144.82135964 -27.23208963 142.1656313 -27.23115921 139.50990295 C-27.23069638 138.20320029 -27.23023356 136.89649762 -27.22975671 135.5501979 C-27.22716537 126.33756079 -27.23154092 117.12494201 -27.23859787 107.91230774 C-27.24700767 96.68669722 -27.24474362 85.46114965 -27.22875564 74.23554635 C-27.22086598 68.50701066 -27.21779325 62.77857995 -27.22770309 57.05004501 C-27.23663596 51.80700711 -27.23174021 46.56417161 -27.21577044 41.32115209 C-27.21241669 39.42355149 -27.21413001 37.52593383 -27.2213978 35.62834418 C-27.23051757 33.04958343 -27.22116638 30.47151633 -27.20723534 27.89279175 C-27.21425883 27.1556349 -27.22128233 26.41847805 -27.22851866 25.65898311 C-27.15802543 19.13233412 -25.50771485 12.83159812 -21.14221191 7.77812195 C-20.70521973 7.2470282 -20.26822754 6.71593445 -19.81799316 6.16874695 C-13.67567592 1.10043017 -7.79859191 -0.06055379 0 0 Z M-8.43967843 20.11745965 C-10.3731285 23.47054089 -10.24426563 26.56942327 -10.21002865 30.33368683 C-10.21468857 31.12895108 -10.21934849 31.92421533 -10.22414961 32.74357849 C-10.23615956 35.42497684 -10.22668123 38.10587408 -10.21739197 40.78727722 C-10.22156226 42.7224132 -10.22703809 44.65754673 -10.23371178 46.59267569 C-10.24822501 51.92330233 -10.24390338 57.25377515 -10.23654497 62.58441043 C-10.23183012 68.32817986 -10.24430813 74.07191519 -10.25456238 79.81567383 C-10.27178844 91.07283872 -10.27258256 102.3299479 -10.26734947 113.58712256 C-10.26331387 122.73316682 -10.26474406 131.87919457 -10.27009773 141.02523804 C-10.27084615 142.32518561 -10.27159458 143.62513318 -10.27236568 144.9644731 C-10.2738971 147.60499704 -10.27543544 150.24552098 -10.27698065 152.88604492 C-10.28681454 170.62383803 -10.2909677 188.36162403 -10.28335476 206.09941864 C-10.28305759 206.79331516 -10.28276041 207.48721169 -10.28245423 208.20213538 C-10.28000518 213.83743892 -10.27739365 219.47274238 -10.2747701 225.10804584 C-10.26466556 247.09461713 -10.27302567 269.08111208 -10.29626465 291.06767273 C-10.32231883 315.7577907 -10.3351407 340.44786095 -10.3280769 365.13799334 C-10.32457747 378.21554465 -10.32686442 391.29303324 -10.34432793 404.37057495 C-10.35900825 415.50235343 -10.35974006 426.63402502 -10.34225702 437.76580131 C-10.33371047 443.44928948 -10.33168621 449.13258636 -10.34690857 454.81606483 C-10.36065715 460.01346168 -10.35612024 465.21050159 -10.33666933 470.40787727 C-10.33287862 472.29341424 -10.3359186 474.17897914 -10.34628098 476.06449145 C-10.35932049 478.61761723 -10.34798552 481.169487 -10.33028316 483.72255707 C-10.33993368 484.46334364 -10.34958419 485.2041302 -10.35952714 485.96736485 C-10.31130201 489.32922447 -10.06184339 491.21205836 -8.04842621 493.95346975 C-4.15221399 496.71866541 -0.81375024 496.65349356 3.88033199 496.6567564 C5.05215021 496.65998085 6.22396843 496.66320529 7.43129629 496.66652745 C8.719702 496.66497885 10.00810772 496.66343025 11.33555603 496.66183472 C12.71725354 496.66370261 14.09895053 496.66600323 15.48064667 496.66870004 C19.28148946 496.67482703 23.08231029 496.67468339 26.8831569 496.67350566 C30.98070181 496.67330189 35.07823963 496.67881818 39.17578125 496.68356323 C47.20475224 496.69187502 55.2337159 496.6946183 63.26269083 496.69517561 C69.78715387 496.69565047 76.31161447 496.69770373 82.83607674 496.70087624 C101.32518907 496.70968387 119.8142956 496.71429538 138.30341005 496.71354576 C139.79901248 496.71348583 139.79901248 496.71348583 141.3248291 496.71342468 C142.82225269 496.71336336 142.82225269 496.71336336 144.34992725 496.7133008 C160.5352541 496.71289419 176.7205577 496.72246726 192.90587782 496.73656305 C209.51608253 496.75091501 226.1262759 496.7578339 242.73648697 496.75696927 C252.06542286 496.75663692 261.39433438 496.75940087 270.72326469 496.77014732 C278.66475864 496.77923676 286.60621716 496.78144039 294.54771405 496.7746379 C298.60094441 496.77136494 302.65410674 496.7713439 306.7073307 496.77999115 C310.41633887 496.78782282 314.12522466 496.78645906 317.83422972 496.77770702 C319.81466891 496.77543287 321.79511181 496.78302671 323.77553648 496.79094666 C324.94996244 496.78634787 326.12438841 496.78174907 327.33440304 496.77701092 C328.85477843 496.77733697 328.85477843 496.77733697 330.40586847 496.77766961 C334.39610969 496.41746548 337.08412966 495.60378027 339.95971662 492.75599217 C341.48182805 489.95478066 341.54305519 488.06615028 341.53943157 484.88219833 C341.54540472 483.7247136 341.55137786 482.56722887 341.55753201 481.37466884 C341.54879349 480.10230726 341.54005496 478.82994569 341.53105164 477.51902771 C341.53235961 476.15438954 341.53498589 474.7897521 341.53881913 473.42511868 C341.54553763 469.67154051 341.53351285 465.91821839 341.51848495 462.16467285 C341.50554843 458.11835226 341.50991236 454.07204651 341.51219177 450.02571106 C341.51376602 443.01395487 341.50434102 436.00228233 341.48747826 428.99054718 C341.46311331 418.85272671 341.45528555 408.71494676 341.45151428 398.57710019 C341.44494586 382.12976159 341.42497411 365.68246758 341.39660645 349.2351532 C341.36907598 333.25663985 341.34783744 317.2781386 341.33508301 301.29960632 C341.33429484 300.31494868 341.33350667 299.33029103 341.33269461 298.31579527 C341.32877954 293.37613437 341.32498841 288.43647339 341.3212589 283.49681234 C341.29015084 242.50721785 341.23730441 201.51767245 341.17028809 160.52812195 C340.61075188 160.52757718 340.05121567 160.52703241 339.47472382 160.52647114 C325.83568838 160.51147867 312.19698301 160.46861785 298.55812836 160.39603138 C291.9623308 160.36176509 285.3667648 160.33665185 278.77087402 160.33256531 C272.40346316 160.32828176 266.03657462 160.29981287 259.66932678 160.25469017 C257.24214217 160.24171723 254.81489505 160.23740673 252.38768005 160.24196815 C248.98326466 160.2468752 245.58037513 160.22077379 242.17614746 160.18754578 C240.67641891 160.20048424 240.67641891 160.20048424 239.14639282 160.21368408 C231.53126482 160.08938153 226.607375 157.91118785 221.18200684 152.5710907 C220.74501465 151.95878601 220.30802246 151.34648132 219.85778809 150.71562195 C219.40790527 150.11105164 218.95802246 149.50648132 218.49450684 148.8835907 C214.2562134 141.34467937 213.72693402 134.92971992 213.73791504 126.42070007 C213.72262756 124.63404434 213.72262756 124.63404434 213.70703125 122.81129456 C213.68213269 119.5680059 213.67019731 116.32498966 213.66417718 113.08162117 C213.65475431 109.68363208 213.62854799 106.28577195 213.60417175 102.88786316 C213.56061011 96.46369887 213.53199989 90.03955976 213.50884837 83.61529303 C213.48174103 76.29715518 213.43783311 68.97914774 213.39255965 61.66110325 C213.29986158 46.61684657 213.2281132 31.57255615 213.17028809 16.52812195 C185.22413112 16.48143071 157.27797998 16.44614721 129.33179188 16.4244976 C116.35631317 16.41417878 103.38085868 16.40010684 90.40539551 16.37724304 C79.09786882 16.35732776 67.79035966 16.34440993 56.48281592 16.33994496 C50.4938758 16.33733443 44.50498585 16.33118591 38.51606178 16.31666183 C32.88140141 16.30310736 27.24681197 16.298895 21.61213684 16.30190659 C19.54209699 16.30135547 17.47205481 16.29736536 15.40202904 16.289711 C12.57919574 16.27978323 9.75663144 16.28214521 6.93379211 16.28761292 C6.11180244 16.28178723 5.28981276 16.27596155 4.44291431 16.26995933 C-0.65009294 16.29668385 -4.69767774 16.42340594 -8.43967843 20.11745965 Z M230.17028809 31.52812195 C230.0775639 44.96708352 230.00651046 58.40596884 229.9630394 71.84518528 C229.94217432 78.08572256 229.91387572 84.3260408 229.86853027 90.56645203 C229.82503504 96.5900074 229.80114285 102.61335223 229.79077911 108.63705254 C229.78339444 110.93394726 229.76897389 113.2308306 229.74736786 115.52763557 C229.71828586 118.74753247 229.71433421 121.96656188 229.71618652 125.18656921 C229.70180542 126.13387909 229.68742432 127.08118896 229.67260742 128.0572052 C229.70988296 134.05457262 230.55115827 137.67574474 234.17028809 142.52812195 C237.75665185 145.54178667 242.60983906 144.79308427 247.06970215 144.75517273 C247.96761475 144.75546478 248.86552734 144.75575684 249.79064941 144.75605774 C252.75583592 144.75466542 255.72077053 144.73910875 258.68591309 144.72343445 C260.74285749 144.71970397 262.79980367 144.71685716 264.85675049 144.71485901 C270.26876741 144.7072253 275.68067688 144.68757898 281.09265137 144.66545105 C286.61591132 144.64498703 292.13918865 144.6358561 297.66247559 144.6257782 C308.49846028 144.60433291 319.33436525 144.57020005 330.17028809 144.52812195 C328.38842806 141.50740329 326.69881385 138.80288383 324.27966309 136.2585907 C323.7385791 135.68399109 323.19749512 135.10939148 322.64001465 134.51737976 C321.78875 133.62550964 321.78875 133.62550964 320.92028809 132.71562195 C319.74237435 131.46510153 318.56528337 130.21380559 317.38903809 128.9617157 C316.8282959 128.36600769 316.26755371 127.77029968 315.68981934 127.15653992 C313.34338177 124.64196109 311.08923465 122.05304024 308.84216309 119.44999695 C306.81270736 117.1170712 304.74264108 114.82300949 302.67028809 112.52812195 C299.4063796 108.9113585 296.18237859 105.26422587 292.98278809 101.59062195 C290.89817644 99.21847766 288.78600164 96.8725613 286.67028809 94.52812195 C283.4063796 90.9113585 280.18237859 87.26422587 276.98278809 83.59062195 C274.89817644 81.21847766 272.78600164 78.8725613 270.67028809 76.52812195 C267.4063796 72.9113585 264.18237859 69.26422587 260.98278809 65.59062195 C258.89817644 63.21847766 256.78600164 60.8725613 254.67028809 58.52812195 C251.98045378 55.54749474 249.30718445 52.55566962 246.67028809 49.52812195 C241.31692568 43.38860143 235.94931239 37.27164578 230.17028809 31.52812195 Z " fill="#000000" transform="translate(87.8297119140625,-0.5281219482421875)"/>
<path d="M0 0 C0.8867263 -0.00779995 1.7734526 -0.01559991 2.68704939 -0.02363622 C5.66454833 -0.04361332 8.64077724 -0.02776927 11.61828613 -0.01205444 C13.75029753 -0.01882801 15.88230307 -0.02772967 18.01429749 -0.03860474 C23.80974431 -0.06143543 29.60474702 -0.05254596 35.4002018 -0.03670931 C41.45887087 -0.02406995 47.51750135 -0.03578496 53.57617188 -0.04364014 C63.75157514 -0.0527424 73.9267971 -0.04073353 84.10217285 -0.01693726 C95.87432813 0.01027496 107.64605047 0.00146121 119.41819525 -0.02606928 C129.51680637 -0.04874279 139.615287 -0.051969 149.71391535 -0.03887594 C155.74920405 -0.03107181 161.78428911 -0.0300664 167.81956482 -0.04655838 C173.49303947 -0.06097815 179.16595474 -0.05102656 184.83936882 -0.0220871 C186.92433174 -0.01546301 189.00934156 -0.01739641 191.09428596 -0.02840042 C193.93532381 -0.04201506 196.77455649 -0.02498974 199.61547852 0 C200.44543445 -0.01115361 201.27539039 -0.02230722 202.1304965 -0.03379881 C206.06933161 0.03365301 207.89501044 0.24845039 210.81975555 2.9871006 C212.65267231 6.24871513 212.92242732 7.94678987 212.30773926 11.63491821 C210.81975555 14.28273582 210.81975555 14.28273582 208.30773926 16.63491821 C205.2272373 17.13576464 202.69698481 17.31124816 199.61547852 17.26983643 C198.28538907 17.28153636 198.28538907 17.28153636 196.92842913 17.29347265 C193.95093019 17.31344975 190.97470128 17.2976057 187.99719238 17.28189087 C185.86518099 17.28866444 183.73317545 17.29756609 181.60118103 17.30844116 C175.80573421 17.33127186 170.01073149 17.32238238 164.21527672 17.30654573 C158.15660765 17.29390637 152.09797717 17.30562138 146.03930664 17.31347656 C135.86390337 17.32257883 125.68868142 17.31056995 115.51330566 17.28677368 C103.74115039 17.25956147 91.96942805 17.26837521 80.19728327 17.29590571 C70.09867214 17.31857922 60.00019152 17.32180542 49.90156317 17.30871236 C43.86627446 17.30090823 37.8311894 17.29990282 31.7959137 17.31639481 C26.12243905 17.33081458 20.44952377 17.32086298 14.7761097 17.29192352 C12.69114677 17.28529943 10.60613696 17.28723283 8.52119255 17.29823685 C5.6801547 17.31185149 2.84092203 17.29482616 0 17.26983643 C-0.82995594 17.28099003 -1.65991187 17.29214364 -2.51501799 17.30363524 C-6.45385309 17.23618341 -8.27953192 17.02138603 -11.20427704 14.28273582 C-13.03719379 11.0211213 -13.3069488 9.32304656 -12.69226074 5.63491821 C-9.52998224 0.00774858 -5.97496944 -0.0802964 0 0 Z " fill="#000000" transform="translate(153.6922607421875,399.3650817871094)"/>
<path d="M0 0 C0.8867263 -0.00779995 1.7734526 -0.01559991 2.68704939 -0.02363622 C5.66454833 -0.04361332 8.64077724 -0.02776927 11.61828613 -0.01205444 C13.75029753 -0.01882801 15.88230307 -0.02772967 18.01429749 -0.03860474 C23.80974431 -0.06143543 29.60474702 -0.05254596 35.4002018 -0.03670931 C41.45887087 -0.02406995 47.51750135 -0.03578496 53.57617188 -0.04364014 C63.75157514 -0.0527424 73.9267971 -0.04073353 84.10217285 -0.01693726 C95.87432813 0.01027496 107.64605047 0.00146121 119.41819525 -0.02606928 C129.51680637 -0.04874279 139.615287 -0.051969 149.71391535 -0.03887594 C155.74920405 -0.03107181 161.78428911 -0.0300664 167.81956482 -0.04655838 C173.49303947 -0.06097815 179.16595474 -0.05102656 184.83936882 -0.0220871 C186.92433174 -0.01546301 189.00934156 -0.01739641 191.09428596 -0.02840042 C193.93532381 -0.04201506 196.77455649 -0.02498974 199.61547852 0 C200.44543445 -0.01115361 201.27539039 -0.02230722 202.1304965 -0.03379881 C206.06933161 0.03365301 207.89501044 0.24845039 210.81975555 2.9871006 C212.65267231 6.24871513 212.92242732 7.94678987 212.30773926 11.63491821 C210.81975555 14.28273582 210.81975555 14.28273582 208.30773926 16.63491821 C205.2272373 17.13576464 202.69698481 17.31124816 199.61547852 17.26983643 C198.28538907 17.28153636 198.28538907 17.28153636 196.92842913 17.29347265 C193.95093019 17.31344975 190.97470128 17.2976057 187.99719238 17.28189087 C185.86518099 17.28866444 183.73317545 17.29756609 181.60118103 17.30844116 C175.80573421 17.33127186 170.01073149 17.32238238 164.21527672 17.30654573 C158.15660765 17.29390637 152.09797717 17.30562138 146.03930664 17.31347656 C135.86390337 17.32257883 125.68868142 17.31056995 115.51330566 17.28677368 C103.74115039 17.25956147 91.96942805 17.26837521 80.19728327 17.29590571 C70.09867214 17.31857922 60.00019152 17.32180542 49.90156317 17.30871236 C43.86627446 17.30090823 37.8311894 17.29990282 31.7959137 17.31639481 C26.12243905 17.33081458 20.44952377 17.32086298 14.7761097 17.29192352 C12.69114677 17.28529943 10.60613696 17.28723283 8.52119255 17.29823685 C5.6801547 17.31185149 2.84092203 17.29482616 0 17.26983643 C-0.82995594 17.28099003 -1.65991187 17.29214364 -2.51501799 17.30363524 C-6.45385309 17.23618341 -8.27953192 17.02138603 -11.20427704 14.28273582 C-13.03719379 11.0211213 -13.3069488 9.32304656 -12.69226074 5.63491821 C-9.52998224 0.00774858 -5.97496944 -0.0802964 0 0 Z " fill="#000000" transform="translate(153.6922607421875,335.3650817871094)"/>
<path d="M0 0 C0.8867263 -0.00779995 1.7734526 -0.01559991 2.68704939 -0.02363622 C5.66454833 -0.04361332 8.64077724 -0.02776927 11.61828613 -0.01205444 C13.75029753 -0.01882801 15.88230307 -0.02772967 18.01429749 -0.03860474 C23.80974431 -0.06143543 29.60474702 -0.05254596 35.4002018 -0.03670931 C41.45887087 -0.02406995 47.51750135 -0.03578496 53.57617188 -0.04364014 C63.75157514 -0.0527424 73.9267971 -0.04073353 84.10217285 -0.01693726 C95.87432813 0.01027496 107.64605047 0.00146121 119.41819525 -0.02606928 C129.51680637 -0.04874279 139.615287 -0.051969 149.71391535 -0.03887594 C155.74920405 -0.03107181 161.78428911 -0.0300664 167.81956482 -0.04655838 C173.49303947 -0.06097815 179.16595474 -0.05102656 184.83936882 -0.0220871 C186.92433174 -0.01546301 189.00934156 -0.01739641 191.09428596 -0.02840042 C193.93532381 -0.04201506 196.77455649 -0.02498974 199.61547852 0 C200.44543445 -0.01115361 201.27539039 -0.02230722 202.1304965 -0.03379881 C206.06933161 0.03365301 207.89501044 0.24845039 210.81975555 2.9871006 C212.65267231 6.24871513 212.92242732 7.94678987 212.30773926 11.63491821 C210.81975555 14.28273582 210.81975555 14.28273582 208.30773926 16.63491821 C205.2272373 17.13576464 202.69698481 17.31124816 199.61547852 17.26983643 C198.28538907 17.28153636 198.28538907 17.28153636 196.92842913 17.29347265 C193.95093019 17.31344975 190.97470128 17.2976057 187.99719238 17.28189087 C185.86518099 17.28866444 183.73317545 17.29756609 181.60118103 17.30844116 C175.80573421 17.33127186 170.01073149 17.32238238 164.21527672 17.30654573 C158.15660765 17.29390637 152.09797717 17.30562138 146.03930664 17.31347656 C135.86390337 17.32257883 125.68868142 17.31056995 115.51330566 17.28677368 C103.74115039 17.25956147 91.96942805 17.26837521 80.19728327 17.29590571 C70.09867214 17.31857922 60.00019152 17.32180542 49.90156317 17.30871236 C43.86627446 17.30090823 37.8311894 17.29990282 31.7959137 17.31639481 C26.12243905 17.33081458 20.44952377 17.32086298 14.7761097 17.29192352 C12.69114677 17.28529943 10.60613696 17.28723283 8.52119255 17.29823685 C5.6801547 17.31185149 2.84092203 17.29482616 0 17.26983643 C-0.82995594 17.28099003 -1.65991187 17.29214364 -2.51501799 17.30363524 C-6.45385309 17.23618341 -8.27953192 17.02138603 -11.20427704 14.28273582 C-13.03719379 11.0211213 -13.3069488 9.32304656 -12.69226074 5.63491821 C-9.52998224 0.00774858 -5.97496944 -0.0802964 0 0 Z " fill="#000000" transform="translate(153.6922607421875,271.3650817871094)"/>
<path d="M0 0 C0.8867263 -0.00779995 1.7734526 -0.01559991 2.68704939 -0.02363622 C5.66454833 -0.04361332 8.64077724 -0.02776927 11.61828613 -0.01205444 C13.75029753 -0.01882801 15.88230307 -0.02772967 18.01429749 -0.03860474 C23.80974431 -0.06143543 29.60474702 -0.05254596 35.4002018 -0.03670931 C41.45887087 -0.02406995 47.51750135 -0.03578496 53.57617188 -0.04364014 C63.75157514 -0.0527424 73.9267971 -0.04073353 84.10217285 -0.01693726 C95.87432813 0.01027496 107.64605047 0.00146121 119.41819525 -0.02606928 C129.51680637 -0.04874279 139.615287 -0.051969 149.71391535 -0.03887594 C155.74920405 -0.03107181 161.78428911 -0.0300664 167.81956482 -0.04655838 C173.49303947 -0.06097815 179.16595474 -0.05102656 184.83936882 -0.0220871 C186.92433174 -0.01546301 189.00934156 -0.01739641 191.09428596 -0.02840042 C193.93532381 -0.04201506 196.77455649 -0.02498974 199.61547852 0 C200.44543445 -0.01115361 201.27539039 -0.02230722 202.1304965 -0.03379881 C206.06933161 0.03365301 207.89501044 0.24845039 210.81975555 2.9871006 C212.65267231 6.24871513 212.92242732 7.94678987 212.30773926 11.63491821 C210.81975555 14.28273582 210.81975555 14.28273582 208.30773926 16.63491821 C205.2272373 17.13576464 202.69698481 17.31124816 199.61547852 17.26983643 C198.28538907 17.28153636 198.28538907 17.28153636 196.92842913 17.29347265 C193.95093019 17.31344975 190.97470128 17.2976057 187.99719238 17.28189087 C185.86518099 17.28866444 183.73317545 17.29756609 181.60118103 17.30844116 C175.80573421 17.33127186 170.01073149 17.32238238 164.21527672 17.30654573 C158.15660765 17.29390637 152.09797717 17.30562138 146.03930664 17.31347656 C135.86390337 17.32257883 125.68868142 17.31056995 115.51330566 17.28677368 C103.74115039 17.25956147 91.96942805 17.26837521 80.19728327 17.29590571 C70.09867214 17.31857922 60.00019152 17.32180542 49.90156317 17.30871236 C43.86627446 17.30090823 37.8311894 17.29990282 31.7959137 17.31639481 C26.12243905 17.33081458 20.44952377 17.32086298 14.7761097 17.29192352 C12.69114677 17.28529943 10.60613696 17.28723283 8.52119255 17.29823685 C5.6801547 17.31185149 2.84092203 17.29482616 0 17.26983643 C-0.82995594 17.28099003 -1.65991187 17.29214364 -2.51501799 17.30363524 C-6.45385309 17.23618341 -8.27953192 17.02138603 -11.20427704 14.28273582 C-13.03719379 11.0211213 -13.3069488 9.32304656 -12.69226074 5.63491821 C-9.52998224 0.00774858 -5.97496944 -0.0802964 0 0 Z " fill="#000000" transform="translate(153.6922607421875,207.36508178710938)"/>
<path d="M0 0 C1.01828384 -0.0087616 2.03656769 -0.01752319 3.08570862 -0.02655029 C6.45405599 -0.04856967 9.82109224 -0.0339816 13.18945312 -0.01708984 C15.52828219 -0.02045722 17.86710955 -0.02530918 20.20593262 -0.03158569 C25.10864923 -0.03896051 30.01091051 -0.02823128 34.91357422 -0.00488281 C41.20226025 0.02360455 47.48987943 0.00720394 53.77852631 -0.02274513 C58.60837869 -0.0408012 63.43797756 -0.03506768 68.26783752 -0.02210617 C70.58671698 -0.01876752 72.90561935 -0.02287528 75.22447205 -0.03450394 C78.46407145 -0.04718411 81.70193627 -0.0278733 84.94140625 0 C85.90256851 -0.01012115 86.86373077 -0.02024231 87.85401917 -0.03067017 C94.33734915 0.07282714 94.33734915 0.07282714 97.56628418 2.99990845 C99.2959477 6.2599972 99.57768709 8.00506886 98.97070312 11.64697266 C97.56628418 14.29403687 97.56628418 14.29403687 94.97070312 16.64697266 C91.63681855 17.40746761 88.34867156 17.32982423 84.94140625 17.29394531 C83.92312241 17.30270691 82.90483856 17.31146851 81.85569763 17.32049561 C78.48735026 17.34251499 75.12031401 17.32792691 71.75195312 17.31103516 C69.41312406 17.31440253 67.0742967 17.31925449 64.73547363 17.32553101 C59.83275702 17.33290582 54.93049574 17.32217659 50.02783203 17.29882812 C43.739146 17.27034077 37.45152682 17.28674137 31.16287994 17.31669044 C26.33302756 17.33474651 21.50342869 17.32901299 16.67356873 17.31605148 C14.35468927 17.31271283 12.0357869 17.3168206 9.7169342 17.32844925 C6.4773348 17.34112942 3.23946998 17.32181861 0 17.29394531 C-1.44174339 17.30912704 -1.44174339 17.30912704 -2.91261292 17.32461548 C-9.3959429 17.22111817 -9.3959429 17.22111817 -12.62487793 14.29403687 C-14.35454145 11.03394811 -14.63628084 9.28887645 -14.02929688 5.64697266 C-10.69807907 -0.63174315 -6.40277207 -0.06742196 0 0 Z " fill="#000000" transform="translate(155.029296875,143.35302734375)"/>
</svg>
