<svg width="22" height="22" viewBox="0 0 22 22" fill="none" xmlns="http://www.w3.org/2000/svg">
<path fill-rule="evenodd" clip-rule="evenodd" d="M11.0001 0.25C6.71983 0.25 3.25004 3.71979 3.25004 8V8.7041C3.25004 9.401 3.04375 10.0824 2.65717 10.6622L1.50856 12.3851C0.17547 14.3848 1.19318 17.1028 3.51177 17.7351C4.26738 17.9412 5.02937 18.1155 5.79578 18.2581L5.79768 18.2632C6.56667 20.3151 8.62198 21.75 11 21.75C13.378 21.75 15.4333 20.3151 16.2023 18.2632L16.2042 18.2581C16.9706 18.1155 17.7327 17.9412 18.4883 17.7351C20.8069 17.1028 21.8246 14.3848 20.4915 12.3851L19.3429 10.6622C18.9564 10.0824 18.7501 9.401 18.7501 8.7041V8C18.7501 3.71979 15.2803 0.25 11.0001 0.25ZM14.3765 18.537C12.1335 18.805 9.86647 18.8049 7.62349 18.5369C8.33444 19.5585 9.57097 20.25 11 20.25C12.429 20.25 13.6655 19.5585 14.3765 18.537ZM4.75004 8C4.75004 4.54822 7.54826 1.75 11.0001 1.75C14.4518 1.75 17.2501 4.54822 17.2501 8V8.7041C17.2501 9.6972 17.544 10.668 18.0949 11.4943L19.2435 13.2172C20.0086 14.3649 19.4245 15.925 18.0937 16.288C13.4494 17.5546 8.5507 17.5546 3.90644 16.288C2.57561 15.925 1.99147 14.3649 2.75664 13.2172L3.90524 11.4943C4.45609 10.668 4.75004 9.6972 4.75004 8.7041V8Z" fill="white"/>
</svg>
